<svg width="1500" height="1038" xmlns="http://www.w3.org/2000/svg" fill="none">
 <defs>
  <clipPath id="clip0_0_3">
   <rect id="svg_1" fill="white" height="1500" width="1500"/>
  </clipPath>
  <clipPath id="clip1_0_3">
   <rect id="svg_2" fill="white" height="1500" width="1500"/>
  </clipPath>
  <clipPath id="clip2_0_3">
   <rect id="svg_3" fill="white" height="1500" width="1500"/>
  </clipPath>
  <clipPath id="clip3_0_3">
   <rect id="svg_4" fill="white" height="1500" width="1500"/>
  </clipPath>
  <clipPath id="clip4_0_3">
   <rect id="svg_5" fill="white" height="1500" width="1500"/>
  </clipPath>
  <clipPath id="clip5_0_3">
   <rect id="svg_6" fill="white" height="1500" width="1500"/>
  </clipPath>
  <clipPath id="clip6_0_3">
   <rect id="svg_7" fill="white" height="1500" width="1500"/>
  </clipPath>
  <clipPath id="clip7_0_3">
   <rect id="svg_8" fill="white" height="1500" width="1500"/>
  </clipPath>
  <clipPath id="clip8_0_3">
   <rect id="svg_9" x="474.228" y="474.229" fill="white" height="551.543" width="551.543"/>
  </clipPath>
  <clipPath id="clip9_0_3">
   <rect id="svg_10" x="474.228" y="474.229" fill="white" height="551.543" width="551.543"/>
  </clipPath>
  <clipPath id="clip10_0_3">
   <rect id="svg_11" fill="white" height="1500" width="1500"/>
  </clipPath>
  <clipPath id="clip11_0_3">
   <rect id="svg_12" fill="white" height="1500" width="1500"/>
  </clipPath>
  <clipPath id="clip12_0_3">
   <rect id="svg_13" fill="white" height="1500" width="1500"/>
  </clipPath>
  <clipPath id="clip13_0_3">
   <rect id="svg_14" fill="white" height="1500" width="1500"/>
  </clipPath>
  <clipPath id="clip14_0_3">
   <rect id="svg_15" x="474.228" y="474.229" fill="white" height="551.543" width="551.543"/>
  </clipPath>
  <clipPath id="clip15_0_3">
   <rect id="svg_16" x="474.228" y="474.229" fill="white" height="551.543" width="551.543"/>
  </clipPath>
  <linearGradient y2="0.595" x2="1" y1="0.578" x1="0" id="paint0_linear_0_3">
   <stop stop-color="#6EE2F5"/>
   <stop stop-color="#6454F0" offset="1"/>
  </linearGradient>
  <linearGradient y2="0.595" x2="1" y1="0.578" x1="0" id="paint1_linear_0_3">
   <stop stop-color="#6EE2F5"/>
   <stop stop-color="#6454F0" offset="1"/>
  </linearGradient>
 </defs>
 <g>
  <title>Layer 1</title>
  <g id="svg_17" clip-path="url(#clip0_0_3)">
   <g id="svg_18" clip-path="url(#clip1_0_3)">
    <g id="svg_19" clip-path="url(#clip2_0_3)">
     <mask height="1500" width="1500" y="0" x="0" maskUnits="userSpaceOnUse" id="mask0_0_3">
      <g id="svg_20" clip-path="url(#clip3_0_3)">
       <g id="svg_21" clip-path="url(#clip4_0_3)">
        <g id="svg_22" clip-path="url(#clip5_0_3)">
         <g id="svg_23" clip-path="url(#clip6_0_3)">
          <g id="svg_24" clip-path="url(#clip7_0_3)">
           <g id="svg_25" clip-path="url(#clip8_0_3)">
            <g id="svg_26" clip-path="url(#clip9_0_3)">
             <path id="svg_27" fill="black" d="m1014.28,1025.77l-528.561,0c-3.047,0 -5.97,-1.21 -8.125,-3.36c-2.155,-2.16 -3.365,-5.08 -3.365,-8.13c-0.055,-28.823 9.552,-56.835 27.285,-79.559c17.734,-22.724 42.571,-38.849 70.545,-45.801l88.04,-22.016l5.078,-20.292c-61.106,-10.227 -92.061,-28.519 -93.44,-29.324c-1.613,-0.969 -2.962,-2.32 -3.931,-3.933c-0.968,-1.613 -1.525,-3.439 -1.623,-5.318c-0.097,-1.879 0.268,-3.753 1.064,-5.458c0.796,-1.704 1.998,-3.188 3.502,-4.319c0.298,-0.23 41.365,-34.15 41.365,-151.674c0,-128.946 94.705,-172.357 137.886,-172.357c33.276,0 45.663,7.032 62.164,22.98l6.779,0c45.755,0 68.943,50.26 68.943,149.377c0,117.524 41.067,151.444 41.48,151.766c1.465,1.169 2.628,2.672 3.392,4.384c0.764,1.711 1.106,3.581 0.998,5.452c-0.115,1.861 -0.682,3.667 -1.651,5.26c-0.969,1.594 -2.311,2.927 -3.911,3.886c-1.379,0.828 -32.656,19.005 -93.371,29.232l5.079,20.338l88.04,22.016c27.966,6.95 52.797,23.069 70.53,45.783c17.728,22.715 27.348,50.715 27.298,79.537c0.01,1.51 -0.29,3.01 -0.86,4.41c-0.57,1.4 -1.42,2.67 -2.49,3.74c-1.07,1.07 -2.33,1.92 -3.73,2.5c-1.4,0.58 -2.9,0.88 -4.41,0.88zm-516.473,-22.98l504.363,0c-2.306,-21.607 -11.2,-41.983 -25.477,-58.365c-14.277,-16.381 -33.246,-27.977 -54.336,-33.214l-94.727,-23.67c-2.018,-0.508 -3.859,-1.555 -5.329,-3.028c-1.469,-1.474 -2.51,-3.318 -3.013,-5.337l-9.813,-39.252c-0.389,-1.561 -0.446,-3.187 -0.167,-4.771c0.279,-1.585 0.887,-3.094 1.786,-4.428c0.899,-1.335 2.069,-2.465 3.433,-3.319c1.364,-0.854 2.892,-1.412 4.485,-1.638c40.952,-5.745 69.287,-15.604 84.478,-22.016c-14.961,-19.993 -38.585,-66.001 -38.585,-157.166c0,-47.203 -5.975,-126.396 -45.962,-126.396l-11.491,0c-1.509,0.003 -3.005,-0.292 -4.401,-0.868c-1.396,-0.575 -2.665,-1.42 -3.734,-2.487c-14.891,-14.914 -20.958,-19.626 -49.317,-19.626c-22.797,0 -114.905,26.589 -114.905,149.377c0,91.257 -23.67,137.242 -38.631,157.212c15.099,6.412 43.319,16.294 84.501,22.016c1.596,0.223 3.126,0.779 4.493,1.631c1.366,0.853 2.538,1.984 3.44,3.318c0.901,1.335 1.512,2.845 1.792,4.431c0.281,1.586 0.225,3.213 -0.165,4.776l-9.813,39.206c-0.504,2.022 -1.549,3.868 -3.023,5.342c-1.473,1.473 -3.32,2.518 -5.342,3.023l-94.704,23.67c-21.086,5.248 -40.052,16.846 -54.331,33.225c-14.279,16.38 -23.182,36.75 -25.505,58.354z"/>
            </g>
           </g>
           <path id="svg_28" fill="white" d="m154.441,580.114c-0.964,3.413 -2.946,5.957 -5.952,7.64c-2.962,1.655 -6.144,2.003 -9.562,1.039c-3.445,-0.975 -6.032,-2.952 -7.752,-5.93c-1.752,-3.027 -2.143,-6.242 -1.179,-9.654c0.965,-3.413 2.995,-5.979 6.086,-7.714c3.048,-1.704 6.295,-2.074 9.739,-1.099c3.413,0.965 5.936,2.963 7.575,5.995c1.661,3.075 2.009,6.316 1.045,9.723z"/>
           <path id="svg_29" fill="white" d="m198.225,402.509l-9.279,17.084c-4.591,-2.497 -9.391,-3.413 -14.4,-2.748c-4.992,0.712 -10.162,2.282 -15.514,4.714c-5.352,2.432 -10.939,5.1 -16.757,8.009c-5.786,2.925 -11.732,5.4 -17.839,7.419c-6.107,2.02 -12.343,2.995 -18.702,2.92c-6.3751,-0.037 -12.8037,-1.821 -19.2804,-5.336l9.2785,-17.084c4.4679,2.427 9.2039,3.311 14.2069,2.642c4.993,-0.713 10.195,-2.267 15.611,-4.661c5.416,-2.395 11.036,-5.047 16.848,-7.956c5.786,-2.925 11.7,-5.416 17.748,-7.473c6.043,-2.051 12.247,-3.043 18.606,-2.973c6.375,0.038 12.868,1.854 19.473,5.443zm-102.1661,15.155l-9.2786,17.084c-6.8571,-3.723 -11.8714,-8.486 -15.0375,-14.282c-3.1821,-5.764 -4.5535,-12.171 -4.1089,-19.216c0.3964,-7.034 2.5714,-14.186 6.5196,-21.455l14.6304,7.944c-3.4018,6.263 -4.4464,12.049 -3.1339,17.363c1.3393,5.33 4.8107,9.519 10.4089,12.562zm92.5551,1.747l9.279,-17.079c6.734,3.659 11.716,8.4 14.946,14.229c3.247,5.796 4.666,12.187 4.248,19.173c-0.364,6.975 -2.555,14.153 -6.567,21.552l-14.818,-8.052c3.402,-6.263 4.478,-12.032 3.23,-17.309c-1.28,-5.298 -4.72,-9.466 -10.318,-12.514zm-68.298,-57.997l-5.454,17.695c-5.973,-2.432 -11.196,-2.721 -15.6638,-0.868c-4.5,1.832 -7.9714,4.998 -10.4143,9.498l-14.6304,-7.944c3.1929,-5.883 7.2697,-10.538 12.2251,-13.956c4.9392,-3.471 10.3232,-5.657 16.1574,-6.562c5.812,-0.879 11.743,-0.161 17.78,2.137zm32.78,113.936l5.299,-17.288c8.26,3.547 15.68,4.543 22.269,2.99c6.573,-1.522 11.582,-5.464 15.038,-11.818l14.818,8.052c-5.759,10.601 -13.715,17.485 -23.866,20.646c-10.104,3.15 -21.29,2.288 -33.558,-2.582z"/>
           <path id="svg_30" fill="white" d="m285.504,345.788c-2.309,2.689 -5.186,4.157 -8.62,4.414c-3.38,0.252 -6.418,-0.777 -9.102,-3.086c-2.716,-2.336 -4.227,-5.218 -4.537,-8.646c-0.311,-3.482 0.685,-6.563 3,-9.252c2.309,-2.689 5.234,-4.163 8.769,-4.425c3.482,-0.263 6.584,0.777 9.295,3.107c2.689,2.309 4.136,5.186 4.345,8.625c0.209,3.488 -0.842,6.573 -3.15,9.263z"/>
           <path id="svg_31" fill="white" d="m399.396,199.746l-15.541,11.599l-46.189,-61.891l15.541,-11.593l46.189,61.885zm-51.948,38.77l-15.578,11.63l-46.195,-61.891l15.584,-11.625l46.189,61.886zm5.888,-100.484l-15.541,11.593c-4.409,-5.909 -9.44,-9.263 -15.075,-10.055c-5.647,-0.745 -11.315,1.007 -16.993,5.244l-10.088,-13.516c6.713,-5.009 13.618,-8.062 20.711,-9.155c7.071,-1.12 13.832,-0.316 20.293,2.411c6.461,2.726 12.021,7.221 16.693,13.478zm-51.949,38.77l-15.583,11.625c-4.667,-6.257 -7.377,-12.879 -8.127,-19.865c-0.777,-6.969 0.407,-13.703 3.552,-20.207c3.096,-6.509 7.955,-12.235 14.582,-17.185l10.087,13.516c-5.71,4.259 -8.994,9.193 -9.862,14.801c-0.847,5.636 0.937,11.406 5.351,17.315zm82.34,34.371l15.541,-11.598c4.752,6.37 7.5,13.012 8.234,19.923c0.734,6.911 -0.418,13.623 -3.466,20.143c-3.022,6.546 -7.891,12.321 -14.604,17.33l-10.087,-13.51c5.678,-4.238 8.946,-9.204 9.798,-14.888c0.803,-5.689 -1.002,-11.491 -5.416,-17.4zm-51.986,38.802l15.579,-11.63c4.409,5.909 9.46,9.289 15.139,10.146c5.662,0.825 11.346,-0.895 17.057,-5.159l10.088,13.511c-6.627,4.944 -13.522,7.95 -20.684,9.005c-7.168,1.109 -13.966,0.327 -20.384,-2.346c-6.445,-2.652 -12.043,-7.163 -16.795,-13.527z"/>
           <path id="svg_32" fill="white" d="m507.804,186.536c-3.242,1.435 -6.467,1.532 -9.681,0.294c-3.166,-1.221 -5.464,-3.45 -6.9,-6.691c-1.452,-3.273 -1.58,-6.525 -0.386,-9.755c1.211,-3.279 3.434,-5.636 6.676,-7.071c3.241,-1.436 6.514,-1.517 9.819,-0.242c3.257,1.259 5.614,3.525 7.066,6.799c1.436,3.241 1.511,6.455 0.225,9.648c-1.307,3.241 -3.578,5.582 -6.819,7.018z"/>
           <path id="svg_33" fill="white" d="m607.548,17.625l-21.31,4.3553l-3.375,-16.5214l21.31,-4.35536l3.375,16.52146zm15.156,74.191l-21.306,4.3554l-3.375,-16.5214l21.306,-4.3554l3.375,16.5214zm33.16,-47.4964l-18.991,3.8786l-2.561,-12.525l18.997,-3.8786l2.555,12.525zm-2.555,-12.525l-18.997,3.8786c-1.483,-7.2589 -4.607,-12.4339 -9.364,-15.5143c-4.794,-3.075 -10.666,-3.9054 -17.609,-2.4857l-3.375,-16.5268c8.207,-1.67679 15.75,-1.51607 22.623,0.47678c6.884,2.03036 12.665,5.63572 17.342,10.82142c4.682,5.2179 7.81,11.6679 9.38,19.35zm-16.479,16.1947l18.991,-3.884c1.591,7.7893 1.249,14.9625 -1.028,21.5357c-2.277,6.5679 -6.177,12.15 -11.705,16.7518c-5.524,4.634 -12.386,7.7947 -20.593,9.4661l-3.375,-16.5214c6.943,-1.4197 12.005,-4.5536 15.182,-9.4018c3.139,-4.8429 3.98,-10.8268 2.528,-17.9464zm-17.185,103.4307l-19.05,3.889l-30.097,-147.32153l19.05,-3.89465l30.097,147.32718z"/>
           <path id="svg_34" fill="white" d="m767.116,137.695c-3.546,-0.038 -6.52,-1.286 -8.925,-3.75c-2.373,-2.422 -3.541,-5.406 -3.509,-8.952c0.038,-3.579 1.27,-6.595 3.697,-9.038c2.459,-2.48 5.464,-3.702 9.005,-3.664c3.546,0.037 6.557,1.323 9.037,3.857c2.443,2.497 3.649,5.534 3.611,9.113c-0.037,3.546 -1.302,6.503 -3.798,8.876c-2.534,2.411 -5.571,3.595 -9.118,3.558z"/>
           <path id="svg_35" fill="white" d="m949.307,99.2679l-63.557,-15.0108l3.83,-16.2053l63.552,15.0161l-3.825,16.2zm-2.7,67.9551l-18.868,-4.457l34.57,-146.341l18.868,4.4518l-34.57,146.3462zm-63.503,-15.005l-18.922,-4.468l34.57,-146.34106l18.921,4.46785l-34.569,146.34121z"/>
           <path id="svg_36" fill="white" d="m1036.3,207.273c-3.17,-1.58 -5.31,-4.002 -6.41,-7.259c-1.08,-3.214 -0.83,-6.412 0.75,-9.589c1.6,-3.204 4.02,-5.379 7.27,-6.52c3.29,-1.157 6.53,-0.948 9.7,0.627c3.17,1.58 5.33,4.05 6.45,7.409c1.11,3.311 0.87,6.573 -0.72,9.777c-1.58,3.171 -4.01,5.282 -7.29,6.332c-3.32,1.066 -6.58,0.809 -9.75,-0.777z"/>
           <path id="svg_37" fill="white" d="m1139.07,272.502l-15.61,-11.491l89.13,-121.104l15.62,11.497l-89.14,121.098z"/>
           <path id="svg_38" fill="white" d="m1212.74,343.854c-2.41,-2.599 -3.55,-5.615 -3.42,-9.054c0.12,-3.391 1.49,-6.289 4.08,-8.705c2.63,-2.438 5.66,-3.616 9.1,-3.541c3.49,0.08 6.44,1.414 8.86,4.012c2.41,2.598 3.55,5.668 3.42,9.209c-0.13,3.493 -1.51,6.455 -4.13,8.893c-2.59,2.411 -5.61,3.53 -9.05,3.353c-3.49,-0.176 -6.44,-1.569 -8.86,-4.167z"/>
           <path id="svg_39" fill="white" d="m1332.83,466.489l-27.19,-47.368l14.44,-8.287l27.18,47.368l-14.43,8.287zm84.68,-94.109l9.57,16.672l-148.67,43.034l-9.57,-16.672l148.67,-43.034zm0.22,0.37l9.56,16.677l-112.15,106.66l-9.47,-16.489l112.06,-106.848z"/>
           <path id="svg_40" fill="white" d="m1346.14,582.145c-1.06,-3.381 -0.81,-6.595 0.78,-9.654c1.56,-3.011 4.03,-5.052 7.41,-6.118c3.42,-1.077 6.66,-0.846 9.74,0.697c3.13,1.564 5.22,4.039 6.29,7.419c1.07,3.381 0.79,6.643 -0.85,9.788c-1.61,3.102 -4.12,5.191 -7.54,6.268c-3.38,1.066 -6.58,0.787 -9.61,-0.847c-3.08,-1.655 -5.15,-4.173 -6.22,-7.553z"/>
           <path id="svg_41" fill="white" d="m14.6571,763.564c0,-32.405 26.2661,-58.671 58.6715,-58.671c32.4054,0 58.6714,26.266 58.6714,58.671c0,32.406 -26.266,58.672 -58.6714,58.672c-32.4054,0 -58.6715,-26.266 -58.6715,-58.672z"/>
           <path id="svg_42" fill="white" d="m1368,763.564c0,-32.405 26.27,-58.671 58.67,-58.671c32.41,0 58.67,26.266 58.67,58.671c0,32.406 -26.26,58.672 -58.67,58.672c-32.4,0 -58.67,-26.266 -58.67,-58.672z"/>
          </g>
         </g>
        </g>
       </g>
      </g>
     </mask>
     <g id="svg_43" mask="url(#mask0_0_3)">
      <path id="svg_44" fill="url(#paint0_linear_0_3)" d="m1500,0l-1500,0l0,1500l1500,0l0,-1500z"/>
     </g>
     <mask height="1500" width="1500" y="0" x="0" maskUnits="userSpaceOnUse" id="mask1_0_3">
      <g id="svg_45" clip-path="url(#clip10_0_3)">
       <g id="svg_46" clip-path="url(#clip11_0_3)">
        <g id="svg_47" clip-path="url(#clip12_0_3)">
         <g id="svg_48" clip-path="url(#clip13_0_3)">
          <g id="svg_49" clip-path="url(#clip14_0_3)">
           <g id="svg_50" clip-path="url(#clip15_0_3)">
            <path id="svg_51" fill="white" d="m1014.28,1025.77l-528.561,0c-3.047,0 -5.97,-1.21 -8.125,-3.36c-2.155,-2.16 -3.365,-5.08 -3.365,-8.13c-0.055,-28.823 9.552,-56.835 27.285,-79.559c17.734,-22.724 42.571,-38.849 70.545,-45.801l88.04,-22.016l5.078,-20.292c-61.106,-10.227 -92.061,-28.519 -93.44,-29.324c-1.613,-0.969 -2.962,-2.32 -3.931,-3.933c-0.968,-1.613 -1.525,-3.439 -1.623,-5.318c-0.097,-1.879 0.268,-3.753 1.064,-5.458c0.796,-1.704 1.998,-3.188 3.502,-4.319c0.298,-0.23 41.365,-34.15 41.365,-151.674c0,-128.946 94.705,-172.357 137.886,-172.357c33.276,0 45.663,7.032 62.164,22.98l6.779,0c45.755,0 68.943,50.26 68.943,149.377c0,117.524 41.067,151.444 41.48,151.766c1.465,1.169 2.628,2.672 3.392,4.384c0.764,1.711 1.106,3.581 0.998,5.452c-0.115,1.861 -0.682,3.667 -1.651,5.26c-0.969,1.594 -2.311,2.927 -3.911,3.886c-1.379,0.828 -32.656,19.005 -93.371,29.232l5.079,20.338l88.04,22.016c27.966,6.95 52.797,23.069 70.53,45.783c17.728,22.715 27.348,50.715 27.298,79.537c0.01,1.51 -0.29,3.01 -0.86,4.41c-0.57,1.4 -1.42,2.67 -2.49,3.74c-1.07,1.07 -2.33,1.92 -3.73,2.5c-1.4,0.58 -2.9,0.88 -4.41,0.88zm-516.473,-22.98l504.363,0c-2.306,-21.607 -11.2,-41.983 -25.477,-58.365c-14.277,-16.381 -33.246,-27.977 -54.336,-33.214l-94.727,-23.67c-2.018,-0.508 -3.859,-1.555 -5.329,-3.028c-1.469,-1.474 -2.51,-3.318 -3.013,-5.337l-9.813,-39.252c-0.389,-1.561 -0.446,-3.187 -0.167,-4.771c0.279,-1.585 0.887,-3.094 1.786,-4.428c0.899,-1.335 2.069,-2.465 3.433,-3.319c1.364,-0.854 2.892,-1.412 4.485,-1.638c40.952,-5.745 69.287,-15.604 84.478,-22.016c-14.961,-19.993 -38.585,-66.001 -38.585,-157.166c0,-47.203 -5.975,-126.396 -45.962,-126.396l-11.491,0c-1.509,0.003 -3.005,-0.292 -4.401,-0.868c-1.396,-0.575 -2.665,-1.42 -3.734,-2.487c-14.891,-14.914 -20.958,-19.626 -49.317,-19.626c-22.797,0 -114.905,26.589 -114.905,149.377c0,91.257 -23.67,137.242 -38.631,157.212c15.099,6.412 43.319,16.294 84.501,22.016c1.596,0.223 3.126,0.779 4.493,1.631c1.366,0.853 2.538,1.984 3.44,3.318c0.901,1.335 1.512,2.845 1.792,4.431c0.281,1.586 0.225,3.213 -0.165,4.776l-9.813,39.206c-0.504,2.022 -1.549,3.868 -3.023,5.342c-1.473,1.473 -3.32,2.518 -5.342,3.023l-94.704,23.67c-21.086,5.248 -40.052,16.846 -54.331,33.225c-14.279,16.38 -23.182,36.75 -25.505,58.354z"/>
           </g>
          </g>
         </g>
        </g>
       </g>
      </g>
     </mask>
     <g id="svg_52" mask="url(#mask1_0_3)">
      <path id="svg_53" fill="url(#paint1_linear_0_3)" d="m1500,0l-1500,0l0,1500l1500,0l0,-1500z"/>
     </g>
    </g>
   </g>
  </g>
 </g>
</svg>