<svg width="1000" height="1000" viewBox="0 0 1000 1000" fill="none" xmlns="http://www.w3.org/2000/svg">
<mask id="mask0_4_202" style="mask-type:luminance" maskUnits="userSpaceOnUse" x="0" y="0" width="1000" height="1000">
<path d="M1000 0H0V1000H1000V0Z" fill="white"/>
</mask>
<g mask="url(#mask0_4_202)">
<mask id="mask1_4_202" style="mask-type:luminance" maskUnits="userSpaceOnUse" x="0" y="0" width="1000" height="1000">
<path d="M1000 0H0V1000H1000V0Z" fill="white"/>
</mask>
<g mask="url(#mask1_4_202)">
<mask id="mask2_4_202" style="mask-type:luminance" maskUnits="userSpaceOnUse" x="11" y="0" width="978" height="552">
<mask id="mask3_4_202" style="mask-type:luminance" maskUnits="userSpaceOnUse" x="0" y="0" width="1000" height="1000">
<path d="M1000 0H0V1000H1000V0Z" fill="white"/>
</mask>
<g mask="url(#mask3_4_202)">
<mask id="mask4_4_202" style="mask-type:luminance" maskUnits="userSpaceOnUse" x="0" y="0" width="1000" height="1000">
<path d="M1000 0H0V1000H1000V0Z" fill="white"/>
</mask>
<g mask="url(#mask4_4_202)">
<mask id="mask5_4_202" style="mask-type:luminance" maskUnits="userSpaceOnUse" x="0" y="0" width="1000" height="1000">
<path d="M1000 0H0V1000H1000V0Z" fill="white"/>
</mask>
<g mask="url(#mask5_4_202)">
<mask id="mask6_4_202" style="mask-type:luminance" maskUnits="userSpaceOnUse" x="0" y="0" width="1000" height="1000">
<path d="M1000 0H0V1000H1000V0Z" fill="white"/>
</mask>
<g mask="url(#mask6_4_202)">
<mask id="mask7_4_202" style="mask-type:luminance" maskUnits="userSpaceOnUse" x="0" y="0" width="1000" height="1000">
<path d="M1000 0H0V1000H1000V0Z" fill="white"/>
</mask>
<g mask="url(#mask7_4_202)">
<path d="M97.6502 341.018L93.5892 353.268C90.2962 352.175 87.0542 352.139 83.8612 353.161C80.6822 354.211 77.4892 355.843 74.2792 358.057C71.0682 360.271 67.7292 362.671 64.2682 365.257C60.8322 367.85 57.2362 370.161 53.4822 372.196C49.7292 374.232 45.7712 375.6 41.6072 376.296C37.4392 377.018 33.0292 376.607 28.3862 375.068L32.4432 362.821C35.6462 363.882 38.8432 363.904 42.0362 362.882C45.2142 361.832 48.4292 360.207 51.6892 358.007C54.9462 355.807 58.3072 353.414 61.7642 350.832C65.2002 348.239 68.7752 345.921 72.4822 343.868C76.1892 341.818 80.1252 340.443 84.2892 339.746C88.4572 339.025 92.9112 339.45 97.6502 341.018ZM32.6792 362.9L28.6212 375.146C23.7042 373.518 19.8712 370.996 17.1212 367.582C14.3642 364.189 12.7212 360.164 12.1862 355.507C11.6212 350.864 12.2042 345.936 13.9292 340.725L24.4182 344.2C22.9322 348.689 22.9252 352.593 24.4042 355.914C25.9042 359.239 28.6642 361.568 32.6792 362.9ZM93.3542 353.189L97.4112 340.939C102.239 342.539 106.05 345.054 108.843 348.482C111.643 351.889 113.321 355.9 113.871 360.511C114.45 365.107 113.861 370.057 112.104 375.361L101.479 371.839C102.964 367.35 102.993 363.454 101.561 360.15C100.104 356.839 97.3682 354.518 93.3542 353.189ZM41.9322 323.307L40.4432 335.504C36.2572 334.618 32.8112 335.039 30.1072 336.775C27.3822 338.5 25.4862 340.975 24.4182 344.2L13.9292 340.725C15.3252 336.507 17.4432 332.989 20.2792 330.175C23.1002 327.329 26.3612 325.268 30.0642 323.993C33.7612 322.739 37.7142 322.511 41.9322 323.307ZM76.7072 393.9L78.1392 381.982C83.9502 383.332 88.9182 383.114 93.0432 381.325C97.1572 379.561 99.9712 376.396 101.479 371.839L112.104 375.361C109.586 382.964 105.193 388.393 98.9322 391.65C92.7002 394.893 85.2932 395.643 76.7072 393.9Z" fill="white"/>
<path d="M151.55 288.068C150.321 290.075 148.596 291.346 146.379 291.882C144.189 292.411 142.093 292.061 140.082 290.832C138.054 289.593 136.757 287.864 136.189 285.654C135.614 283.407 135.939 281.279 137.168 279.271C138.396 277.264 140.154 275.986 142.439 275.436C144.693 274.893 146.836 275.239 148.864 276.479C150.871 277.707 152.125 279.436 152.629 281.664C153.139 283.925 152.782 286.061 151.55 288.068Z" fill="white"/>
<path d="M215.918 175.593L206.832 184.704L170.539 148.504L179.625 139.393L215.918 175.593ZM185.536 206.054L176.425 215.193L140.132 178.993L149.243 169.857L185.536 206.054ZM179.729 139.493L170.639 148.607C167.171 145.15 163.55 143.432 159.768 143.454C155.986 143.511 152.436 145.204 149.114 148.532L141.189 140.629C145.118 136.693 149.357 134.021 153.907 132.621C158.443 131.204 162.961 131.079 167.468 132.25C171.971 133.421 176.061 135.836 179.729 139.493ZM149.343 169.957L140.232 179.093C136.564 175.436 134.146 171.346 132.982 166.829C131.8 162.329 131.929 157.789 133.368 153.218C134.775 148.646 137.414 144.414 141.289 140.529L149.214 148.432C145.875 151.782 144.189 155.336 144.164 159.1C144.154 162.882 145.879 166.5 149.343 169.957ZM206.732 184.6L215.818 175.489C219.554 179.214 221.996 183.311 223.143 187.782C224.293 192.25 224.179 196.771 222.811 201.343C221.457 205.932 218.814 210.196 214.886 214.132L206.961 206.229C210.282 202.896 211.95 199.325 211.964 195.507C211.943 191.693 210.2 188.057 206.732 184.6ZM176.325 215.089L185.436 205.954C188.904 209.411 192.543 211.146 196.357 211.157C200.154 211.154 203.725 209.475 207.064 206.129L214.989 214.032C211.114 217.918 206.875 220.554 202.268 221.936C197.664 223.354 193.129 223.493 188.661 222.357C184.171 221.236 180.061 218.814 176.325 215.089Z" fill="white"/>
<path d="M291.579 153.096C289.568 154.318 287.454 154.657 285.232 154.118C283.043 153.586 281.339 152.311 280.118 150.304C278.882 148.271 278.521 146.143 279.029 143.914C279.546 141.654 280.811 139.911 282.821 138.689C284.832 137.468 286.979 137.136 289.264 137.693C291.518 138.243 293.261 139.532 294.496 141.564C295.718 143.575 296.043 145.686 295.468 147.896C294.886 150.143 293.589 151.875 291.579 153.096Z" fill="white"/>
<path d="M350.493 30.896L336.764 35.3681L333.3 24.725L347.029 20.254L350.493 30.896ZM366.05 78.689L352.325 83.161L348.861 72.514L362.586 68.046L366.05 78.689ZM384.357 44.879L372.121 48.861L369.496 40.793L381.732 36.811L384.357 44.879ZM381.732 36.811L369.496 40.793C367.975 36.114 365.529 32.939 362.157 31.261C358.764 29.589 354.832 29.486 350.357 30.943L346.893 20.3C352.182 18.579 357.168 18.118 361.85 18.918C366.543 19.739 370.621 21.686 374.096 24.75C377.575 27.839 380.121 31.861 381.732 36.811ZM372.079 48.725L384.314 44.7431C385.946 49.7611 386.261 54.518 385.25 59.018C384.243 63.521 382.086 67.4961 378.786 70.9461C375.493 74.4181 371.2 77.014 365.914 78.736L362.45 68.093C366.925 66.636 370.025 64.189 371.757 60.75C373.464 57.321 373.571 53.311 372.079 48.725ZM368.5 118.229L356.232 122.225L325.336 27.318L337.607 23.3211L368.5 118.229Z" fill="white"/>
<path d="M471.375 97.618C469.032 97.821 466.986 97.186 465.236 95.714C463.511 94.264 462.55 92.368 462.346 90.025C462.143 87.657 462.761 85.589 464.204 83.818C465.671 82.021 467.575 81.021 469.921 80.818C472.264 80.614 474.339 81.271 476.139 82.786C477.914 84.279 478.904 86.207 479.107 88.575C479.311 90.918 478.664 92.954 477.168 94.682C475.65 96.436 473.718 97.414 471.375 97.618Z" fill="white"/>
<path d="M596.511 62.036L553.657 55.507L555.321 44.582L598.175 51.111L596.511 62.036ZM598.364 107.136L585.643 105.2L600.675 6.52899L613.396 8.46399L598.364 107.136ZM555.55 100.614L542.793 98.671L557.825 0L570.579 1.94299L555.55 100.614Z" fill="white"/>
<path d="M665.979 131.457C663.807 130.546 662.293 129.036 661.425 126.921C660.571 124.836 660.6 122.711 661.511 120.543C662.429 118.35 663.939 116.807 666.039 115.911C668.171 115 670.325 115 672.496 115.911C674.668 116.821 676.196 118.364 677.086 120.539C677.964 122.686 677.943 124.854 677.025 127.046C676.114 129.218 674.596 130.718 672.471 131.554C670.314 132.4 668.15 132.371 665.979 131.457Z" fill="white"/>
<path d="M742.289 174.136L731.568 167.018L786.77 83.864L797.49 90.982L742.289 174.136Z" fill="white"/>
<path d="M798.09 223.846C796.43 222.175 795.61 220.196 795.62 217.914C795.63 215.664 796.47 213.707 798.14 212.05C799.83 210.379 801.81 209.529 804.1 209.507C806.42 209.482 808.41 210.307 810.06 211.979C811.72 213.65 812.54 215.661 812.53 218.014C812.52 220.332 811.67 222.329 809.98 224C808.31 225.657 806.33 226.461 804.05 226.421C801.73 226.379 799.74 225.521 798.09 223.846Z" fill="white"/>
<path d="M883.66 308.8L865.11 277.654L874.61 272L893.16 303.146L883.66 308.8ZM938.86 245.436L945.39 256.4L847.18 286.55L840.65 275.586L938.86 245.436ZM939.01 245.679L945.54 256.643L872.24 328.632L865.78 317.789L939.01 245.679Z" fill="white"/>
<path d="M895.69 391.789C894.98 389.546 895.16 387.411 896.21 385.386C897.25 383.389 898.89 382.036 901.13 381.325C903.4 380.607 905.55 380.764 907.6 381.786C909.67 382.825 911.06 384.468 911.77 386.711C912.48 388.954 912.29 391.118 911.21 393.207C910.14 395.264 908.47 396.65 906.2 397.368C903.96 398.079 901.83 397.889 899.82 396.804C897.78 395.704 896.4 394.032 895.69 391.793V391.789Z" fill="white"/>
<path d="M11.9072 512.211C11.9072 490.704 29.3432 473.268 50.8542 473.264C72.3612 473.264 89.7962 490.7 89.7962 512.211C89.7962 533.718 72.3612 551.154 50.8542 551.154C29.3462 551.154 11.9112 533.718 11.9072 512.211Z" fill="white"/>
<path d="M910.2 512.211C910.2 490.704 927.64 473.268 949.15 473.264C970.65 473.264 988.09 490.7 988.09 512.211C988.09 533.718 970.66 551.154 949.15 551.154C927.64 551.154 910.2 533.718 910.2 512.211Z" fill="white"/>
</g>
</g>
</g>
</g>
</g>
</mask>
<g mask="url(#mask2_4_202)">
<path d="M1000 0H0V1000H1000V0Z" fill="white"/>
</g>
<mask id="mask8_4_202" style="mask-type:luminance" maskUnits="userSpaceOnUse" x="316" y="316" width="368" height="368">
<mask id="mask9_4_202" style="mask-type:luminance" maskUnits="userSpaceOnUse" x="0" y="0" width="1000" height="1000">
<path d="M1000 0H0V1000H1000V0Z" fill="white"/>
</mask>
<g mask="url(#mask9_4_202)">
<mask id="mask10_4_202" style="mask-type:luminance" maskUnits="userSpaceOnUse" x="0" y="0" width="1000" height="1000">
<path d="M1000 0H0V1000H1000V0Z" fill="white"/>
</mask>
<g mask="url(#mask10_4_202)">
<mask id="mask11_4_202" style="mask-type:luminance" maskUnits="userSpaceOnUse" x="0" y="0" width="1000" height="1000">
<path d="M1000 0H0V1000H1000V0Z" fill="white"/>
</mask>
<g mask="url(#mask11_4_202)">
<mask id="mask12_4_202" style="mask-type:luminance" maskUnits="userSpaceOnUse" x="0" y="0" width="1000" height="1000">
<path d="M1000 0H0V1000H1000V0Z" fill="white"/>
</mask>
<g mask="url(#mask12_4_202)">
<mask id="mask13_4_202" style="mask-type:luminance" maskUnits="userSpaceOnUse" x="316" y="316" width="368" height="368">
<path d="M683.848 316.152H316.152V683.848H683.848V316.152Z" fill="white"/>
</mask>
<g mask="url(#mask13_4_202)">
<mask id="mask14_4_202" style="mask-type:luminance" maskUnits="userSpaceOnUse" x="316" y="316" width="368" height="368">
<path d="M683.848 316.152H316.152V683.848H683.848V316.152Z" fill="white"/>
</mask>
<g mask="url(#mask14_4_202)">
<path d="M676.187 683.848H323.813C319.584 683.848 316.152 680.416 316.152 676.187C316.152 636.568 342.963 602.219 381.372 592.613L440.066 577.936L443.452 564.408C402.714 557.59 382.077 545.395 381.158 544.859C378.967 543.557 377.573 541.243 377.435 538.685C377.312 536.141 378.461 533.705 380.499 532.173C380.698 532.02 408.076 509.407 408.076 431.057C408.076 345.093 471.213 316.152 500 316.152C522.184 316.152 530.442 320.84 541.442 331.473H545.962C576.465 331.473 591.924 364.979 591.924 431.057C591.924 509.407 619.302 532.02 619.578 532.235C621.554 533.813 622.672 536.279 622.504 538.792C622.335 541.32 620.972 543.618 618.796 544.89C617.877 545.441 597.026 557.56 556.549 564.377L559.934 577.936L618.628 592.613C657.037 602.219 683.848 636.568 683.848 676.157C683.848 680.385 680.416 683.848 676.187 683.848ZM331.871 668.527H668.113C664.973 639.265 643.968 614.752 614.905 607.474L551.753 591.694C549.026 591.005 546.881 588.86 546.192 586.117L539.65 559.95C539.114 557.851 539.512 555.614 540.722 553.806C541.933 552.014 543.863 550.803 546.008 550.512C573.309 546.682 592.2 540.109 602.327 535.835C592.353 522.506 576.603 491.834 576.603 431.057C576.603 399.588 572.62 346.794 545.962 346.794H538.302C536.264 346.794 534.318 345.982 532.878 344.557C522.95 334.614 518.906 331.473 500 331.473C484.802 331.473 423.397 349.199 423.397 431.057C423.397 491.895 407.617 522.552 397.643 535.866C407.708 540.14 426.522 546.728 453.977 550.543C456.137 550.849 458.052 552.044 459.278 553.837C460.488 555.645 460.886 557.881 460.35 559.98L453.808 586.117C453.119 588.86 450.974 591.005 448.232 591.694L385.095 607.474C356.017 614.752 335.012 639.28 331.871 668.527Z" fill="white"/>
</g>
</g>
</g>
</g>
</g>
</g>
</mask>
<g mask="url(#mask8_4_202)">
<path d="M1000 0H0V704H1000V0Z" fill="white"/>
</g>
</g>
</g>
</svg>
